<svg xmlns="http://www.w3.org/2000/svg" viewBox="0 0 100 100" fill="none">
  <circle cx="50" cy="50" r="48" fill="#0F0F10"/>
  <g transform="translate(50 50)">
    <circle r="38" fill="none" stroke="#C8A97E" stroke-width="1.4"/>
    
    <g fill="#F7F2EA">
      <path d="M0 -34 L24 -22 L18 -6 L-2 -8 Z"/>
      <path d="M24 -22 L34 4 L20 12 L8 -2 Z"/>
      <path d="M34 4 L22 28 L8 22 L12 6 Z"/>
      <path d="M22 28 L-6 32 L-10 18 L4 14 Z"/>
      <path d="M-6 32 L-30 16 L-22 4 L-8 10 Z"/>
      <path d="M-30 16 L-34 -10 L-20 -14 L-14 0 Z"/>
      <path d="M-34 -10 L-16 -30 L-6 -22 L-14 -8 Z"/>
      <path d="M-16 -30 L8 -34 L10 -20 L-2 -16 Z"/>
    </g>
    
    <g fill="#F7F2EA" transform="translate(0 -8)">
      <path d="M-22 4 L-22 -8 L-18 -8 L-18 -14 L-14 -14 L-14 -8 L-10 -8 L-10 -16 L-6 -22 L-2 -16 L-2 -10 L2 -10 L2 -20 L6 -26 L10 -20 L10 -10 L14 -10 L14 -6 L18 -6 L18 4 Z"/>
      
      <path d="M-4 -22 L-4 -28" stroke="#F7F2EA" stroke-width="1.2"/>
      <path d="M4 -22 L4 -30" stroke="#F7F2EA" stroke-width="1.2"/>
      <path d="M8 -20 L8 -25" stroke="#F7F2EA" stroke-width="1.2"/>
      <path d="M-8 -20 L-8 -24" stroke="#F7F2EA" stroke-width="1.2"/>
    </g>
  </g>
</svg>
