<svg xmlns="http://www.w3.org/2000/svg" viewBox="0 0 240 280" fill="none">
  
  <rect x="0" y="0" width="240" height="18" fill="currentColor"></rect>
  <g fill="#fff">
    <rect x="6" y="4" width="10" height="10"></rect>
    <rect x="22" y="4" width="10" height="10"></rect>
    <rect x="38" y="4" width="10" height="10"></rect>
    <rect x="54" y="4" width="10" height="10"></rect>
    <rect x="70" y="4" width="10" height="10"></rect>
    <rect x="86" y="4" width="10" height="10"></rect>
    <rect x="102" y="4" width="10" height="10"></rect>
    <rect x="118" y="4" width="10" height="10"></rect>
    <rect x="134" y="4" width="10" height="10"></rect>
    <rect x="150" y="4" width="10" height="10"></rect>
    <rect x="166" y="4" width="10" height="10"></rect>
    <rect x="182" y="4" width="10" height="10"></rect>
    <rect x="198" y="4" width="10" height="10"></rect>
    <rect x="214" y="4" width="10" height="10"></rect>
  </g>
  
  <rect x="0" y="262" width="240" height="18" fill="currentColor"></rect>
  <g fill="#fff">
    <rect x="6" y="266" width="10" height="10"></rect>
    <rect x="22" y="266" width="10" height="10"></rect>
    <rect x="38" y="266" width="10" height="10"></rect>
    <rect x="54" y="266" width="10" height="10"></rect>
    <rect x="70" y="266" width="10" height="10"></rect>
    <rect x="86" y="266" width="10" height="10"></rect>
    <rect x="102" y="266" width="10" height="10"></rect>
    <rect x="118" y="266" width="10" height="10"></rect>
    <rect x="134" y="266" width="10" height="10"></rect>
    <rect x="150" y="266" width="10" height="10"></rect>
    <rect x="166" y="266" width="10" height="10"></rect>
    <rect x="182" y="266" width="10" height="10"></rect>
    <rect x="198" y="266" width="10" height="10"></rect>
    <rect x="214" y="266" width="10" height="10"></rect>
  </g>
  
  <g transform="translate(120 88)">
    <circle r="38" fill="none" stroke="#C8A97E" stroke-width="1.4"></circle>
    
    <g fill="currentColor">
      <path d="M0 -34 L24 -22 L18 -6 L-2 -8 Z"></path>
      <path d="M24 -22 L34 4 L20 12 L8 -2 Z"></path>
      <path d="M34 4 L22 28 L8 22 L12 6 Z"></path>
      <path d="M22 28 L-6 32 L-10 18 L4 14 Z"></path>
      <path d="M-6 32 L-30 16 L-22 4 L-8 10 Z"></path>
      <path d="M-30 16 L-34 -10 L-20 -14 L-14 0 Z"></path>
      <path d="M-34 -10 L-16 -30 L-6 -22 L-14 -8 Z"></path>
      <path d="M-16 -30 L8 -34 L10 -20 L-2 -16 Z"></path>
    </g>
    
    <g fill="currentColor" transform="translate(0 -8)">
      <path d="M-22 4 L-22 -8 L-18 -8 L-18 -14 L-14 -14 L-14 -8 L-10 -8 L-10 -16 L-6 -22 L-2 -16 L-2 -10 L2 -10 L2 -20 L6 -26 L10 -20 L10 -10 L14 -10 L14 -6 L18 -6 L18 4 Z"></path>
      
      <path d="M-4 -22 L-4 -28" stroke="currentColor" stroke-width="1.2"></path>
      <path d="M4 -22 L4 -30" stroke="currentColor" stroke-width="1.2"></path>
      <path d="M8 -20 L8 -25" stroke="currentColor" stroke-width="1.2"></path>
      <path d="M-8 -20 L-8 -24" stroke="currentColor" stroke-width="1.2"></path>
    </g>
  </g>
  
  <text x="120" y="178" text-anchor="middle" font-family="&#39;Cormorant Garamond&#39;, serif" font-weight="500" font-size="48" letter-spacing="10" fill="currentColor">M W L</text>
  
  <text x="120" y="208" text-anchor="middle" font-family="&#39;Italianno&#39;, cursive" font-size="22" fill="#C8A97E" font-style="italic">Milano wedding light</text>
  
  <text x="120" y="240" text-anchor="middle" font-family="&#39;Jost&#39;, sans-serif" font-size="16" letter-spacing="4" fill="currentColor">Foto&amp;Video</text>
</svg>