<svg xmlns="http://www.w3.org/2000/svg" viewBox="0 0 200 60" fill="none">
  
  <g transform="translate(28 30)">
    <circle r="22" fill="none" stroke="currentColor" stroke-width="0.8" opacity="0.5"></circle>
    <g fill="currentColor">
      <path d="M0 -19 L13 -12 L10 -3 L-1 -4 Z"></path>
      <path d="M13 -12 L19 2 L11 7 L4 -1 Z"></path>
      <path d="M19 2 L12 16 L4 12 L7 3 Z"></path>
      <path d="M12 16 L-3 18 L-6 10 L2 8 Z"></path>
      <path d="M-3 18 L-17 9 L-12 2 L-4 6 Z"></path>
      <path d="M-17 9 L-19 -6 L-11 -8 L-8 0 Z"></path>
      <path d="M-19 -6 L-9 -17 L-3 -12 L-8 -4 Z"></path>
      <path d="M-9 -17 L4 -19 L6 -11 L-1 -9 Z"></path>
    </g>
    
    <g fill="currentColor" transform="translate(0 -3)">
      <path d="M-12 2 L-12 -4 L-10 -4 L-10 -8 L-8 -8 L-8 -4 L-6 -4 L-6 -9 L-4 -12 L-2 -9 L-2 -5 L0 -5 L0 -11 L2 -14 L4 -11 L4 -5 L6 -5 L6 -3 L9 -3 L9 2 Z"></path>
    </g>
  </g>
  
  <text x="62" y="36" font-family="&#39;Cormorant Garamond&#39;, serif" font-weight="500" font-size="26" letter-spacing="5" fill="currentColor">M W L</text>
  <text x="62" y="50" font-family="&#39;Italianno&#39;, cursive" font-size="13" fill="currentColor" opacity="0.7">Milano wedding light</text>
</svg>